<svg xmlns="http://www.w3.org/2000/svg" width="70" height="70" viewBox="0 0 511.771 721.642"><g transform="translate(6576.886 -6264.7)"><path d="M-6066.231 6495.946a233.782 233.782 0 0 0-56.134-136.044q-8.425-10.39-17.5-20.012-54.507-54.39-130.013-70.382a268.317 268.317 0 0 0-50.33-4.808c-3.941 0-6.947.039-8.976.118a257.5 257.5 0 0 0-42.359 5.242 268.124 268.124 0 0 0-47.6 14.888q-71.136 30.092-115.017 95a251.075 251.075 0 0 0-35.127 77.8 256.236 256.236 0 0 0-6.562 85.585 308.257 308.257 0 0 0 50.882 145.562q36.654 55.365 73.318 110.179 41.044 62.09 81.309 125.107 13.238 21.014 31.738 49.239a28.736 28.736 0 0 0 10.3 9.508 27.683 27.683 0 0 0 13.46 3.409h.325a27.59 27.59 0 0 0 13.568-3.734 28.365 28.365 0 0 0 10.178-9.735l82.949-134.048q29.87-48.153 61.938-97.508a939.439 939.439 0 0 0 49.562-87.428q37.112-74.787 30.091-157.938zm-77.486 127.885c-.246.374-.5.729-.768 1.084a211.2 211.2 0 0 1-29.658 36.723l-.049.039q-58.056 58.143-139.375 60.677a46.581 46.581 0 0 1-5.754.118h-3.232a45.349 45.349 0 0 1-5.183-.118q-81.733-2.247-140.192-60.716a214.381 214.381 0 0 1-29.717-36.891c-.059-.079-.118-.138-.177-.207-.177-.227-.325-.483-.483-.709q-30.402-48.211-30.486-109.111.118-59.06 28.84-106.257c.148-.315.315-.621.493-.936a210.635 210.635 0 0 1 31.521-39.718v-.059q58.469-58.336 140.231-60.568c1.714-.069 3.429-.108 5.134-.118h3.232a50.847 50.847 0 0 1 5.754.118q81.319 2.557 139.374 60.627a214.805 214.805 0 0 1 31.018 38.8c.187.246.365.532.542.808q29.308 47.606 29.382 107.312-.044 60.875-30.447 109.102z" fill="#00b0f0" fill-rule="evenodd"/><circle cx="209.5" cy="209.5" r="209.5" transform="translate(-6530 6306)" fill="#fff"/><g fill="#00b0f0"><path d="M-6411.705 6624.315a10.53 10.53 0 0 0 10.533-10.529v-50.024a10.531 10.531 0 0 0-10.533-10.533h-21.939a10.531 10.531 0 0 0-10.533 10.533v50.029a10.53 10.53 0 0 0 10.533 10.529h21.939zM-6208.262 6624.315a10.533 10.533 0 0 0 10.533-10.529v-50.024a10.533 10.533 0 0 0-10.533-10.533h-21.941a10.534 10.534 0 0 0-10.536 10.533v50.029a10.533 10.533 0 0 0 10.536 10.529h21.941z"/><path d="M-6201.608 6468.101l-15.285-64.446a19.069 19.069 0 0 0-19.032-18.27h-170.056a19.063 19.063 0 0 0-19.025 18.27l-15.349 64.449a31.654 31.654 0 0 0-28.762 31.511v80.2h296.336v-80.2a31.664 31.664 0 0 0-28.827-31.514zm-223.548 66.122a23.985 23.985 0 1 1 23.989-23.985 23.984 23.984 0 0 1-23.989 23.985zm4.842-66.263l15.121-62.729h168.484l15.116 62.729zm203.564 66.263a23.985 23.985 0 1 1 23.985-23.985 23.987 23.987 0 0 1-23.985 23.985z"/></g></g></svg>