<svg width="114" height="114" xmlns="http://www.w3.org/2000/svg"><path d="M57.423 10.877c-4 .1-6.8.9-9.3 2.1-2.6 7.4-5.8 4.2-5.9 4.2-2 2-3.3 4.3-3.9 6.2-1.7 5.1.4 13.4.4 13.4v10.1s-1.1.1-2.8 1.2c-1.7 1.1-.8 3.3-.8 3.3l3.4-.9s.1 14.4-.9 25.4c-1 11 1.9 19.2 2.6 22.4.7 3.2 2 3.4 6.7 4.3 3.9.7 9 .8 10.5.8s6.6 0 10.5-.7c4.7-.8 6-1.1 6.7-4.3.8-3.2 3.7-11.4 2.7-22.4-1-11-.8-25.4-.8-25.4l3.4.9s1-2.2-.7-3.3c-1.7-1.1-2.8-1.2-2.8-1.2v-10.1s2.2-8.2.4-13.4c-.6-1.9-1.9-4.1-3.7-6.1-.7.5-3.3 2.1-5.5-4.1-2.6-1.3-5.4-2.2-9.4-2.3h-.5c0-.1-.3-.1-.3-.1zm-16.5 37.3s4 3 3.9 16.9c0 13.9-4 18.5-4 18.5l.1-35.4zm27.2 36.9c-.1 1.2-.4 4.5-.9 6.8s-5.8 4.5-9.8 4.6h-1c-4-.1-9.2-2.3-9.7-4.6-.5-2.4-.8-5.7-.9-6.9-.1-1.2.1-3.3 2.8-3.3h16.7c2.8 0 2.9 2.2 2.8 3.4zm5.9-1.4s-4-4.6-3.9-18.5c0-13.9 4-16.9 4-16.9l-.1 35.4zm-16.6-49.4c9.2 0 13 3.6 14.2 5.8 1.3 2.2-.4 8.1-.9 10-.4 1.8-2.5 2.5-4.3 2.5h-18.2c-1.8 0-3.9-.6-4.3-2.5-.4-1.8-2.1-7.7-.8-10s5.1-5.8 14.3-5.8v.3-.3z" fill-rule="nonzero" fill="#FFF"/></svg>