<svg viewBox="0 0 109 23" xmlns="http://www.w3.org/2000/svg" xmlns:xlink="http://www.w3.org/1999/xlink"><defs><path id="a" d="M0 .658h31v31.484H0z"/></defs><g fill="none" fill-rule="evenodd"><path d="M31.268.64h11.097v2.781h-7.722v5.481h6.912v2.781h-6.912V19h-3.375V.64zM48.548 19h-3.321V.1h3.321V19zm14.229-5.562h-7.938c.135 1.944 1.323 3.321 3.051 3.321 1.431 0 2.619-.351 3.726-.864l.756 2.349c-1.161.621-2.889 1.161-4.752 1.161-4.05 0-6.021-3.159-6.021-6.939 0-3.672 2.052-6.885 5.859-6.885s5.481 2.619 5.481 5.616c0 .837-.081 1.782-.162 2.241zm-7.857-2.16h4.968c.027-.135.027-.297.027-.432 0-1.512-.594-2.862-2.43-2.862-1.62 0-2.484 1.647-2.565 3.294zm17.465 2.16h-7.938c.135 1.944 1.323 3.321 3.051 3.321 1.431 0 2.619-.351 3.726-.864l.756 2.349c-1.161.621-2.889 1.161-4.752 1.161-4.05 0-6.021-3.159-6.021-6.939 0-3.672 2.052-6.885 5.859-6.885s5.481 2.619 5.481 5.616c0 .837-.081 1.782-.162 2.241zm-7.857-2.16h4.968c.027-.135.027-.297.027-.432 0-1.512-.594-2.862-2.43-2.862-1.62 0-2.484 1.647-2.565 3.294zm12.015-8.316h3.321v3.024h3.375v2.592h-3.375v6.615c0 .972.459 1.485 1.404 1.485.513 0 1.35-.162 1.89-.351V19c-.513.135-1.593.405-2.754.405-2.619 0-3.861-1.188-3.861-3.699V8.578H74.41V6.742l2.133-.756V2.962z" fill="#FFF" fill-rule="nonzero"/><g transform="translate(-2 -7)"><mask id="b" fill="#fff"><use xlink:href="#a"/></mask><path d="M54.249 20.932c-.462-.406-3.12-4.766-4.796-6.452-1.733-1.744-6.413-5.697-16.12-5.697-5.489 0-5.893.348-6.702.465-.809.174-8.898 3.197-12.018 5.813-1.502 0-5.95.93-7.626 1.802C5.31 17.735 3 19.48 3 21.746c0 1.919.751 2.733 1.676 3.256.693.407.982.988 1.733 1.046-.116-.407-.116-.814-.116-1.279 0-3.197 2.543-5.755 5.72-5.755 3.178 0 5.72 2.558 5.72 5.755 0 .465-.057.872-.173 1.28h21.262a4.56 4.56 0 0 1-.173-1.28c0-3.197 2.542-5.755 5.72-5.755s5.72 2.558 5.72 5.755c0 .465-.058.872-.173 1.28h4.217c.867 0 .867-.815.867-1.105v-3.14c0-.465-.289-.465-.751-.872zm-47.782-.755c-.405.697-1.098 2.034-1.618 2.034s-.52-.348-.52-.348c0-.93.404-2.21 1.502-2.849 1.098-.64 1.04.465.636 1.163zm27.617-1.454h-3.35a.643.643 0 0 1-.636-.64c0-.348.289-.639.635-.639h3.351c.347 0 .636.291.636.64 0 .407-.289.64-.636.64zM18.6 15.817c2.831-2.849 7.049-5.349 10.92-5.349h4.044c.636 1.28 1.907 3.721 2.658 5.349H18.6zm19.587 0l-2.427-5.174c5.604.64 9.013 2.907 9.244 5.174h-6.817z" fill="#FFF" fill-rule="nonzero" mask="url(#b)"/><path d="M12.053 20.97A4.052 4.052 0 0 0 8 25.033c0 .433.054.812.162 1.191.487 1.625 2.054 2.871 3.837 2.871a3.958 3.958 0 0 0 3.838-2.87c.108-.38.162-.76.162-1.192.054-2.221-1.73-4.063-3.946-4.063zm0 6.446c-.864 0-1.62-.488-2.053-1.192a2.323 2.323 0 0 1-.325-1.191c0-1.3 1.081-2.384 2.378-2.384 1.298 0 2.378 1.084 2.378 2.384 0 .433-.108.866-.324 1.191-.432.704-1.189 1.192-2.054 1.192z" fill="#FFF" fill-rule="nonzero" mask="url(#b)"/><path d="M44.56 20.97A4.559 4.559 0 0 0 40 25.54c0 .488.06.914.182 1.341.548 1.828 2.31 3.23 4.317 3.23 2.068 0 3.77-1.34 4.317-3.23.122-.427.183-.853.183-1.34.06-2.499-1.946-4.57-4.439-4.57zm0 7.252c-.973 0-1.824-.549-2.31-1.341a2.614 2.614 0 0 1-.365-1.34c0-1.463 1.216-2.682 2.675-2.682 1.46 0 2.675 1.219 2.675 2.681 0 .488-.121.975-.364 1.341-.487.792-1.338 1.34-2.31 1.34z" fill="#000" fill-rule="nonzero" mask="url(#b)"/><path d="M54.971 20.455v-.753c0-.29-.173-.58-.404-.753 0 0-2.366-1.564-4.559-3.708l-.289-.29a23.992 23.992 0 0 0-2.539-2.201c-2.655-1.97-7.04-4.404-13.908-4.867h-.231c-.173 0-.346 0-.577-.058-.289 0-.635 0-.924-.058h-.057c-1.154 0-2.366 0-3.694.116h-.057c-.462.058-.866.058-1.328.116-2.943.29-6.463 2.839-9.58 5.098-.577.406-1.096.811-1.616 1.159h-.577c-.115 0-.23 0-.346.058h-.058c-.115 0-.23 0-.346.058-.173 0-.289.058-.462.058-.115 0-.288.058-.404.058-.173 0-.346.058-.52.058-.115 0-.288.058-.403.058-.173.058-.346.058-.52.115-.115.058-.288.058-.404.116a1.702 1.702 0 0 1-.577.116c-.115.058-.288.058-.404.116-.23.058-.404.116-.634.174-.116.058-.231.058-.347.116-.288.116-.635.174-.923.29-.231.115-.52.173-.75.29-.058.057-.116.057-.231.115-.173.058-.289.116-.462.174-.058.058-.173.058-.23.116-.116.058-.232.116-.405.174-.057.057-.115.057-.23.115l-.347.174c-.058.058-.115.058-.173.116-.173.116-.289.174-.462.29-.115.116-.288.174-.404.29l-.115.115c-.058.058-.173.116-.23.232l-.116.116-.173.174-.116.116a.8.8 0 0 0-.173.231c0 .058-.058.058-.058.116-.057.116-.115.174-.173.29-.058.116-.115.174-.173.29 0 .058-.058.058-.058.115-.057.058-.057.116-.057.174 0 .058 0 .058-.058.116 0 .058-.058.116-.058.174 0 .058 0 .058-.058.116v.058c-.346.116-.577.347-.75.521-.404.753-.23 1.97.289 3.94a.85.85 0 0 0 .808.637h3.29c.057-.29 0-.58 0-.869 0-.29.057-.58.057-.869.404-2.78 2.828-4.925 5.713-4.925 2.886 0 5.31 2.144 5.714 4.925.057.29.057.58.057.87 0 .289-.057.579-.057.868h20.891c0-.29-.058-.58-.058-.869 0-.29.058-.58.058-.869.404-2.78 2.828-4.925 5.714-4.925 2.885 0 5.309 2.144 5.713 4.925.058.29.058.58.058.87 0 .289-.058.579-.058.868h.058c.288 0 2.597.058 3.75-1.506.867-1.275.809-2.086.751-3.07zm-38.205-5.098l.52-.348c.23-.174.404-.29.635-.463.23-.174.519-.348.75-.522 2.77-1.97 5.713-3.997 7.964-4.23.404-.057.808-.057 1.212-.115h.404c.23 0 .52-.058.75-.058H30.04c1.5 0 2.828.058 4.04.174v5.62H16.766v-.058zm16.967 2.433c0 .348-.23.58-.577.58h-2.308c-.346 0-.577-.232-.577-.58 0-.347.23-.58.577-.58h2.308c.347 0 .577.233.577.58zM6.148 20.05c-.52.58-1.097.985-1.443.985a.44.44 0 0 1-.289-.116c-.288-.29-.057-1.217.635-2.028.635-.811 1.443-1.159 1.79-.87.057.059.057.117.115.175 0 .405-.231 1.158-.808 1.854zM35.81 9.969c2.424.463 4.328 1.216 5.771 2.085.404.232.808.522 1.154.754.347.29.693.52.981.81.693.58 1.212 1.16 1.674 1.68h-9.58v-5.33z" fill="#FFF" fill-rule="nonzero" mask="url(#b)"/><path d="M45.5 19.954c-2.16 0-4.02 1.585-4.38 3.657-.06.304-.12.61-.12.914 0 .304.06.61.12.914.06.183.12.426.18.61.06.182.18.426.24.609.78 1.462 2.28 2.437 3.96 2.437 2.16 0 4.02-1.584 4.38-3.656.06-.305.12-.61.12-.914 0-.305-.06-.61-.12-.914-.36-2.072-2.22-3.657-4.38-3.657zm2.52 5.485c-.36 1.036-1.38 1.828-2.52 1.828-1.2 0-2.16-.792-2.52-1.828-.12-.305-.18-.61-.18-.914 0-.305.06-.61.18-.914.36-1.036 1.38-1.828 2.52-1.828 1.14 0 2.16.792 2.52 1.828.12.304.18.61.18.914 0 .304-.06.61-.18.914z" fill="#000" fill-rule="nonzero" mask="url(#b)"/></g><path d="M92.389 7.44L96.401 19h-.986l-1.071-3.06h-4.879L88.394 19h-.986L91.42 7.44h.969zm-.459 1.139h-.051l-.833 2.737-1.292 3.74h4.301l-1.292-3.74-.833-2.737zM99.495 19h-.952V7.44h3.366c2.227 0 3.485 1.19 3.485 3.417s-1.275 3.4-3.485 3.4h-2.414V19zm0-10.659v5.015h2.346c1.853 0 2.55-1.003 2.55-2.499 0-1.513-.697-2.516-2.55-2.516h-2.346zm9.435-.901V19h-.952V7.44h.952z" fill="#FFF" fill-rule="nonzero"/></g></svg>