<svg xmlns="http://www.w3.org/2000/svg" width="123.289" height="40.322"><defs><clipPath id="a"><path fill="none" d="M0 0h123.289v40.322H0z"/></clipPath><filter id="b" x="4.395" y="5.337" width="35.581" height="36.182" filterUnits="userSpaceOnUse"><feOffset dy="3"/><feGaussianBlur stdDeviation="3" result="c"/><feFlood flood-color="#0d006e" flood-opacity=".161"/><feComposite operator="in" in2="c"/><feComposite in="SourceGraphic"/></filter></defs><g opacity=".929" clip-path="url(#a)"><path d="M53.136 11.079a11.483 11.483 0 0 1 6.39 1.484 5.156 5.156 0 0 1 2.219 4.612 5.213 5.213 0 0 1-.9 3.168 5.9 5.9 0 0 1-2.58 1.912q.561.7 1.176 1.591t1.221 1.872q.6.976 1.163 2.032t1.043 2.068h-4.679l-1.029-1.845q-.521-.936-1.069-1.818t-1.083-1.671q-.535-.789-1.069-1.43H51.88v6.764h-4.171v-18.26a23.645 23.645 0 0 1 2.821-.374q1.459-.105 2.606-.105zm.241 3.556q-.454 0-.815.027t-.682.053v5.026h1.176a7.1 7.1 0 0 0 3.369-.588 2.126 2.126 0 0 0 1.016-2.005 2.039 2.039 0 0 0-1.029-1.938 6.365 6.365 0 0 0-3.035-.575zm9.651 8.261a8.6 8.6 0 0 1 .575-3.275 7.021 7.021 0 0 1 1.511-2.339 6.284 6.284 0 0 1 2.152-1.417 6.738 6.738 0 0 1 2.5-.481 6.212 6.212 0 0 1 4.732 1.831 7.546 7.546 0 0 1 1.738 5.387q0 .348-.027.762t-.053.735h-9.037a2.647 2.647 0 0 0 1.15 1.952 4.621 4.621 0 0 0 2.727.722 11.511 11.511 0 0 0 2.152-.2 8.124 8.124 0 0 0 1.724-.495l.535 3.235a5.5 5.5 0 0 1-.856.321 11.2 11.2 0 0 1-1.19.281q-.655.12-1.4.2a14.043 14.043 0 0 1-1.5.08 8.862 8.862 0 0 1-3.3-.561 6.431 6.431 0 0 1-2.326-1.537 6.1 6.1 0 0 1-1.363-2.313 9.161 9.161 0 0 1-.444-2.888zm9.361-1.524a4.112 4.112 0 0 0-.174-.989 2.47 2.47 0 0 0-.454-.856 2.42 2.42 0 0 0-.775-.615 2.526 2.526 0 0 0-1.163-.241 2.672 2.672 0 0 0-1.15.227 2.375 2.375 0 0 0-.8.6 2.691 2.691 0 0 0-.495.869 5.7 5.7 0 0 0-.254 1zm6.015-5.133a22.206 22.206 0 0 1 2.62-.548 21.53 21.53 0 0 1 3.369-.254 8.2 8.2 0 0 1 2.981.468 4.478 4.478 0 0 1 1.885 1.323 5.156 5.156 0 0 1 .989 2.032 10.81 10.81 0 0 1 .294 2.62v7.938h-3.987v-7.459a5.37 5.37 0 0 0-.508-2.727 2.072 2.072 0 0 0-1.9-.8q-.428 0-.909.04t-.856.094v10.852h-3.981zm14.437-3.984l3.984-.642v4.144h4.786v3.315h-4.79v4.946a3.935 3.935 0 0 0 .441 2.005 1.893 1.893 0 0 0 1.778.749 7.611 7.611 0 0 0 1.323-.12 6.821 6.821 0 0 0 1.243-.334l.561 3.1a11.334 11.334 0 0 1-1.6.508 9.347 9.347 0 0 1-2.166.214 7.129 7.129 0 0 1-2.7-.441 4.236 4.236 0 0 1-1.711-1.23 4.578 4.578 0 0 1-.9-1.912 11.285 11.285 0 0 1-.254-2.486zm16.733 14.785q.588 0 1.123-.027a7.813 7.813 0 0 0 .856-.08v-3.021q-.241-.053-.722-.107a8.037 8.037 0 0 0-.882-.053 7.894 7.894 0 0 0-1.06.066 2.759 2.759 0 0 0-.869.254 1.491 1.491 0 0 0-.588.508 1.415 1.415 0 0 0-.214.8 1.366 1.366 0 0 0 .628 1.3 3.472 3.472 0 0 0 1.728.36zm-.321-11.656a9.225 9.225 0 0 1 2.941.4 4.567 4.567 0 0 1 1.885 1.15 4.225 4.225 0 0 1 1 1.818 8.967 8.967 0 0 1 .294 2.379v8.287q-.856.187-2.379.441a22.864 22.864 0 0 1-3.689.254 11.7 11.7 0 0 1-2.473-.241 5.367 5.367 0 0 1-1.912-.789 3.609 3.609 0 0 1-1.23-1.43 4.937 4.937 0 0 1-.428-2.166 4.1 4.1 0 0 1 .495-2.085 3.807 3.807 0 0 1 1.323-1.363 5.981 5.981 0 0 1 1.9-.735 10.649 10.649 0 0 1 2.219-.227 12.6 12.6 0 0 1 1.377.067 6.129 6.129 0 0 1 .976.174v-.374a2.2 2.2 0 0 0-.615-1.631 2.977 2.977 0 0 0-2.139-.615 13.62 13.62 0 0 0-2.005.147 8.6 8.6 0 0 0-1.711.414l-.508-3.208q.348-.107.869-.227t1.136-.214q.615-.094 1.3-.16t1.374-.067zm13.474 14.7a9.952 9.952 0 0 1-2.821-.374 4.178 4.178 0 0 1-1.711-.976 3.237 3.237 0 0 1-.856-1.524 8.223 8.223 0 0 1-.227-2.019V9.718l3.984-.642v15.319a5.249 5.249 0 0 0 .08.962 1.661 1.661 0 0 0 .307.722 1.632 1.632 0 0 0 .655.481 3.59 3.59 0 0 0 1.15.241z" fill="#fff"/><text transform="translate(107.755 36.596)" fill="#fff" font-size="5" font-family="VWHead-Light, VW Head" font-weight="300" letter-spacing="-.044em"><tspan x="0" y="0">GmbH</tspan></text><path d="M11.647.901h20.442a8.736 8.736 0 0 1 8.736 8.736v20.442a8.736 8.736 0 0 1-8.736 8.736H11.647a8.736 8.736 0 0 1-8.736-8.736V9.637A8.736 8.736 0 0 1 11.647.901z" fill="#00b0f0"/><path d="M-8556.557 6232.313s-3.068.378-3.429 10.216c-.034 6.054.069 7.966.069 7.966h17.5s-5.947-6.445-8.7-9.987a1.981 1.981 0 0 1-1.937-.313 2.651 2.651 0 0 1-.383-3.867c-1.417-1.828-3.12-4.015-3.12-4.015z" transform="translate(8573.391 -6220.979)" fill="#fff" opacity=".9" filter="url(#b)"/><path d="M13.465 29.495s-.783-12.883 1.645-16.482a7.853 7.853 0 1 1 13.02 8.783c-2.428 3.598-14.665 7.699-14.665 7.699zm6.9-10.23a2.244 2.244 0 0 0 2.51-3.72 2.244 2.244 0 1 0-2.51 3.72z" fill="#fff"/></g></svg>