<svg width="21" height="30" xmlns="http://www.w3.org/2000/svg"><g fill="#001E50" fill-rule="nonzero"><path d="M20.808 26.708l-2.083-5.699c-.245-.705-.92-1.164-1.686-1.164h-.582c-.46.705-.919 1.379-1.379 2.053h1.747l1.9 5.147H3.067l1.9-5.147h1.747c-.46-.674-.92-1.38-1.38-2.053h-.55c-.736 0-1.41.46-1.686 1.164l-2.084 5.7c-.214.55-.122 1.164.215 1.654.337.49.889.766 1.47.766h16.455c.582 0 1.133-.276 1.47-.766.307-.49.399-1.103.184-1.655z"/><path d="M12.168 23.215c2.42-3.34 7.476-10.785 7.476-14.462 0-4.81-3.922-8.733-8.733-8.733-4.81 0-8.732 3.922-8.732 8.733 0 3.677 5.056 11.122 7.476 14.462.613.858 1.9.858 2.513 0zM7.112 8.753a3.799 3.799 0 1 1 7.599 0c0 2.083-1.685 3.8-3.8 3.8-2.083 0-3.8-1.717-3.8-3.8z"/></g></svg>