<svg viewBox="0 0 78 77" xmlns="http://www.w3.org/2000/svg" xmlns:xlink="http://www.w3.org/1999/xlink"><defs><path d="M50 22L33.162 32.61c-1.55 1.463-1.55 3.829 0 5.292 1.55 1.464 4.055 1.464 5.604 0L50 22z" id="b"/><filter x="-288.9%" y="-294.1%" width="677.8%" height="711.8%" filterUnits="objectBoundingBox" id="a"><feOffset dy="2" in="SourceAlpha" result="shadowOffsetOuter1"/><feGaussianBlur stdDeviation="17" in="shadowOffsetOuter1" result="shadowBlurOuter1"/><feColorMatrix values="0 0 0 0 0 0 0 0 0 0.657099185 0 0 0 0 1 0 0 0 0.611639493 0" in="shadowBlurOuter1" result="shadowMatrixOuter1"/><feOffset dy="2" in="SourceAlpha" result="shadowOffsetOuter2"/><feGaussianBlur stdDeviation="5" in="shadowOffsetOuter2" result="shadowBlurOuter2"/><feColorMatrix values="0 0 0 0 0.105442177 0 0 0 0 0.105442177 0 0 0 0 0.105442177 0 0 0 0.5 0" in="shadowBlurOuter2" result="shadowMatrixOuter2"/><feMerge><feMergeNode in="shadowMatrixOuter1"/><feMergeNode in="shadowMatrixOuter2"/></feMerge></filter></defs><g fill-rule="nonzero" fill="none" opacity=".9"><g fill="#00B0F0"><path d="M21.343 52h3.143c.741 0 1.343.635 1.343 1.418v7.164c0 .783-.602 1.418-1.343 1.418h-3.143C20.601 62 20 61.365 20 60.582v-7.164c0-.783.601-1.418 1.343-1.418zM30.31 52h3.666c.865 0 1.567.635 1.567 1.418v7.164c0 .783-.702 1.418-1.567 1.418H30.31c-.866 0-1.567-.635-1.567-1.418v-7.164c0-.783.701-1.418 1.567-1.418zM39.8 52h3.143c.741 0 1.343.635 1.343 1.418v7.164c0 .783-.602 1.418-1.343 1.418H39.8c-.742 0-1.343-.635-1.343-1.418v-7.164c0-.783.601-1.418 1.343-1.418zM48.767 52h3.666C53.3 52 54 52.635 54 53.418v7.164c0 .783-.701 1.418-1.567 1.418h-3.666c-.866 0-1.567-.635-1.567-1.418v-7.164c0-.783.701-1.418 1.567-1.418z"/></g><path d="M36.5 4C16.425 4 0 20.425 0 40.5S16.425 77 36.5 77 73 60.575 73 40.5 56.575 4 36.5 4zm.349 69.158c-17.862 0-32.046-14.447-32.046-32.31 0-17.86 14.184-32.045 32.046-32.045 17.862 0 32.309 14.184 32.309 32.046 0 17.862-14.447 32.309-32.31 32.309z" fill="#00B0F0"/><g transform="translate(0 4)"><use fill="#000" filter="url(#a)" xlink:href="#b"/><use fill="#00B0F0" xlink:href="#b"/></g></g></svg>