<svg width="78" height="77" xmlns="http://www.w3.org/2000/svg" xmlns:xlink="http://www.w3.org/1999/xlink"><defs><path d="M50.5 22L33.662 32.61c-1.55 1.463-1.55 3.829 0 5.292 1.55 1.464 4.055 1.464 5.604 0L50.5 22z" id="b"/><filter x="-288.9%" y="-294.1%" width="677.8%" height="711.8%" filterUnits="objectBoundingBox" id="a"><feOffset dy="2" in="SourceAlpha" result="shadowOffsetOuter1"/><feGaussianBlur stdDeviation="17" in="shadowOffsetOuter1" result="shadowBlurOuter1"/><feColorMatrix values="0 0 0 0 0 0 0 0 0 0.657099185 0 0 0 0 1 0 0 0 0.611639493 0" in="shadowBlurOuter1" result="shadowMatrixOuter1"/><feOffset dy="2" in="SourceAlpha" result="shadowOffsetOuter2"/><feGaussianBlur stdDeviation="5" in="shadowOffsetOuter2" result="shadowBlurOuter2"/><feColorMatrix values="0 0 0 0 0.105442177 0 0 0 0 0.105442177 0 0 0 0 0.105442177 0 0 0 0.5 0" in="shadowBlurOuter2" result="shadowMatrixOuter2"/><feMerge><feMergeNode in="shadowMatrixOuter1"/><feMergeNode in="shadowMatrixOuter2"/></feMerge></filter></defs><g fill-rule="nonzero" fill="none" opacity=".9"><g fill="#00B0F0"><path d="M21.382 52h3.236c.763 0 1.382.571 1.382 1.276v6.448c0 .705-.619 1.276-1.382 1.276h-3.236C20.62 61 20 60.429 20 59.724v-6.448c0-.705.619-1.276 1.382-1.276zM30.382 52h3.236c.763 0 1.382.571 1.382 1.276v6.448c0 .705-.619 1.276-1.382 1.276h-3.236C29.62 61 29 60.429 29 59.724v-6.448c0-.705.619-1.276 1.382-1.276zM39.382 52h3.236c.763 0 1.382.571 1.382 1.276v6.448c0 .705-.619 1.276-1.382 1.276h-3.236C38.62 61 38 60.429 38 59.724v-6.448c0-.705.619-1.276 1.382-1.276zM48.382 52h3.236c.763 0 1.382.571 1.382 1.276v6.448c0 .705-.619 1.276-1.382 1.276h-3.236C47.62 61 47 60.429 47 59.724v-6.448c0-.705.619-1.276 1.382-1.276z"/></g><path d="M36.239 4C16.308 4 0 20.308 0 40.239 0 60.17 16.308 76.478 36.239 76.478c19.931 0 36.239-16.308 36.239-36.24C72.478 20.309 56.17 4 36.238 4zm0 68.077c-17.602 0-31.58-14.236-31.58-31.838s13.978-31.58 31.58-31.58c17.602 0 31.838 13.978 31.838 31.58 0 17.602-14.236 31.838-31.838 31.838z" fill="#00B0F0"/><g transform="translate(0 4)"><use fill="#000" filter="url(#a)" xlink:href="#b"/><use fill="#00B0F0" xlink:href="#b"/></g></g></svg>