<svg width="97" height="48" xmlns="http://www.w3.org/2000/svg" class="custom"><g fill="none" fill-rule="evenodd"><path d="M36.888 21.352c0 .27-.034.539-.1.808a2.232 2.232 0 0 1-.931 1.33 2.604 2.604 0 0 1-.892.38v.094c.307.052.6.14.877.264a2.25 2.25 0 0 1 1.207 1.306c.118.311.177.68.177 1.104 0 .56-.118 1.044-.354 1.454-.236.41-.55.744-.946 1.003-.395.259-.843.45-1.346.575a6.444 6.444 0 0 1-1.554.187h-.67a20.664 20.664 0 0 1-1.83-.093 6.76 6.76 0 0 1-.884-.14v-10.73c.194-.03.417-.061.669-.092.251-.031.52-.057.807-.078a23.435 23.435 0 0 1 1.785-.062c.503 0 .992.039 1.47.116.476.078.902.215 1.276.412.375.197.675.472.9.824.226.353.339.799.339 1.338zM33.042 28.1c.256 0 .505-.031.746-.094.24-.062.454-.158.638-.287a1.384 1.384 0 0 0 .615-1.19c0-.342-.066-.611-.2-.808a1.363 1.363 0 0 0-.522-.459 2.14 2.14 0 0 0-.724-.21 6.901 6.901 0 0 0-.8-.047h-1.123v3.001c.052.021.134.037.246.047.113.01.234.018.362.023l.4.016c.138.005.259.008.362.008zm-.693-4.712c.144 0 .31-.005.5-.015.19-.01.346-.026.47-.047a2.78 2.78 0 0 0 1.007-.56c.282-.248.423-.575.423-.98 0-.269-.051-.491-.154-.668a1.179 1.179 0 0 0-.407-.42 1.715 1.715 0 0 0-.577-.217 3.575 3.575 0 0 0-.677-.062c-.267 0-.513.005-.739.015-.225.01-.4.026-.523.047v2.907h.677zm20.985 6.313H46.52V18.817h2.107v8.987h4.708v1.897zm3.77-5.675l-.847-1.71h-.077l.247 1.71V29.7h-2V18.74h1.538l4.077 5.8.815 1.664h.077l-.246-1.664v-5.722h2V29.78H61.15l-4.046-5.753zm8.061 3.965h2.139v-6.142l.23-1.057-.738.917-1.37.949-.845-1.166 3.507-2.861h1.123v9.36h2.093v1.71h-6.139v-1.71zm14.477-6.515a4.8 4.8 0 0 1-.284 1.601 9.954 9.954 0 0 1-.723 1.586 14.914 14.914 0 0 1-.97 1.5c-.353.483-.7.926-1.038 1.33l-.815.638v.077l1.107-.217h2.954v1.71h-6.477V28.66c.246-.259.523-.562.83-.91.309-.346.619-.714.932-1.103.312-.389.618-.79.915-1.205.297-.415.564-.832.8-1.252a7.75 7.75 0 0 0 .562-1.22c.138-.394.207-.767.207-1.12 0-.425-.12-.775-.361-1.05-.241-.274-.623-.411-1.146-.411-.329 0-.665.07-1.008.21-.344.14-.633.318-.87.536l-.8-1.43c.4-.332.854-.6 1.362-.801.508-.202 1.105-.304 1.793-.304.44 0 .846.063 1.215.187.37.124.687.306.954.544.266.239.477.537.63.894.154.358.231.775.231 1.252zm5.123 6.732c.636 0 1.121-.17 1.454-.513.334-.342.5-.756.5-1.244 0-.59-.174-1.026-.523-1.306-.348-.28-.897-.42-1.646-.42h-1.108v-1.072l1.862-2.566.877-.7-1.215.14H82.38v-1.71h5.877v1.104l-2.17 2.939-.676.42v.077l.646-.093c.359.031.7.114 1.023.249.323.135.605.329.846.583.241.254.433.567.577.94.144.374.215.804.215 1.291 0 .612-.1 1.14-.3 1.586-.2.446-.477.819-.83 1.12a3.46 3.46 0 0 1-1.239.668c-.472.145-.98.218-1.523.218-.451 0-.918-.042-1.4-.125-.482-.083-.872-.202-1.17-.357l.54-1.68c.266.135.56.244.884.327.323.083.684.124 1.084.124z" fill="#00B0F0" class="fill"/><path d="M6.4 1.006a5.5 5.5 0 0 0-5.5 5.5v34.64a5.5 5.5 0 0 0 5.5 5.5h84.09a5.5 5.5 0 0 0 5.5-5.5V6.506a5.5 5.5 0 0 0-5.5-5.5H6.4z" stroke="#00B2F4" stroke-width="1.8" class="stroke"/><path d="M.351 6.872v33.77a6.4 6.4 0 0 0 6.4 6.4h15.027V.471H6.751a6.4 6.4 0 0 0-6.4 6.4zM8.724 35.77v-6.002h1.641c2.192 0 3.04 1.06 3.04 3 0 1.943-.848 3.002-3.04 3.002H8.724zm.803-.733h.725c1.843 0 2.323-.688 2.323-2.268 0-1.58-.48-2.268-2.323-2.268h-.725v4.536zm6.545-19.88l.215-.622.185.623h.647l-.524.404.216.623-.524-.405-.554.405.215-.654-.523-.373h.647zM3.874 18.303h.646l.216-.623.185.623h.647l-.493.405.216.622-.524-.405-.555.405.216-.654-.554-.373zm2.248 4.171L5.6 22.07l-.555.404.216-.653-.524-.374h.647l.216-.623.184.623h.647l-.523.405.215.622zm-.215-6.91l.215.622-.554-.405-.555.405.216-.654-.524-.373h.647l.216-.623.185.623h.646l-.492.404zm2.464 9.183l-.524-.405-.554.405.215-.654-.523-.373h.647l.215-.623.185.623h.647l-.524.404.216.623zM8.155 13.29l.216.622-.524-.404-.554.404.215-.653-.523-.374h.647l.215-.622.185.622h.647l-.524.405zm3.327 12.296l-.555-.404-.554.404.216-.653-.524-.374h.647l.215-.623.185.623h.647l-.523.405.246.622zm-.216-13.168l.216.623-.555-.405-.554.405.216-.654-.524-.374h.647l.215-.622.185.622h.647l-.493.405zm3.296 12.328l-.523-.405-.555.405.216-.654-.524-.373h.647l.216-.623.184.623h.647l-.523.404.215.623zm-.215-11.456l.215.622-.523-.404-.555.404.216-.622-.524-.374h.647l.216-.622.184.622h.647l-.523.374zm2.495 9.183l-.524-.404-.554.404.215-.653-.524-.374h.647l.216-.623.185.623h.647l-.524.405.216.622zm.831-3.144l-.523-.405-.555.405.216-.654-.524-.373h.647l.216-.623.184.623h.647l-.523.405.215.622z" fill="#00B0F0" fill-rule="nonzero" class="fill"/></g></svg>