<svg width="191" height="688" xmlns="http://www.w3.org/2000/svg"><path d="M0 729.732v-42.5l25.98-1.32c14.1-.66 31.27-2.86 37.88-4.85 44.26-13.65 76.42-45.58 91.61-91.39 3.74-11.01 4.19-23.78 4.85-154.16l.66-142.04 7.93-4.41c4.4-2.42 11.01-8.15 14.76-12.77l6.83-8.59v-133.45l-6.61-8.59c-3.74-4.62-11.01-10.35-16.08-12.77-7.49-3.52-9.25-5.51-9.25-10.35 0-10.57-10.79-40.3-19.38-53.73-14.76-22.46-40.3-44.48-55.94-48.23-14.31-3.52-32.15 9.47-34.13 24.67-1.76 12.77 3.74 22.46 18.72 33.03 14.54 10.35 23.79 22.46 29.29 38.76l3.96 11.45-5.95 3.08c-8.15 4.18-17.84 13.21-22.02 21.14-3.3 5.73-3.74 14.76-3.74 66.07 0 32.59.66 62.1 1.76 65.63 2.2 8.15 15.42 22.46 23.56 25.77l6.83 2.86-.66 138.96-.66 138.96-5.73 12.11c-7.93 16.96-17.18 26.65-33.25 35.24-12.55 6.83-15.86 7.49-37.44 8.37L0 627.782v101.95z" fill="#00B0F0" fill-rule="evenodd"/></svg>