<svg viewBox="0 0 22 48" xmlns="http://www.w3.org/2000/svg"><path d="M.351 7.231v33.77a6.4 6.4 0 0 0 6.4 6.4h15.027V.83H6.751a6.4 6.4 0 0 0-6.4 6.4zm6.713 32.897v-10H9.87c3.746 0 5.194 1.765 5.194 5 0 3.236-1.448 5-5.194 5H7.064zm1-1h1.427c3.628 0 4.573-1.214 4.573-4s-.945-4-4.573-4H8.064v8zm8.008-23.611l.215-.623.185.623h.647l-.524.405.216.622-.524-.404-.554.404.215-.653-.523-.374h.647zM3.874 18.661h.646l.216-.622.185.622h.647l-.493.405.216.623-.524-.405-.555.405.216-.654-.554-.374zm2.248 4.172l-.523-.405-.555.405.216-.654-.524-.374h.647l.216-.622.184.622h.647l-.523.405.215.623zm-.215-6.911l.215.622-.554-.404-.555.404.216-.653-.524-.374h.647l.216-.623.185.623h.646l-.492.405zm2.464 9.183l-.524-.404-.554.404.215-.654-.523-.373h.647l.215-.623.185.623h.647l-.524.405.216.622zM8.155 13.65l.216.623-.524-.405-.554.405.215-.654-.523-.374h.647l.215-.622.185.622h.647l-.524.405zm3.327 12.297l-.555-.405-.554.405.216-.654-.524-.374h.647l.215-.622.185.622h.647l-.523.405.246.623zm-.216-13.168l.216.622-.555-.405-.554.405.216-.654-.524-.373h.647l.215-.623.185.623h.647l-.493.405zm3.296 12.327l-.523-.404-.555.404.216-.654-.524-.373h.647l.216-.623.184.623h.647l-.523.405.215.622zm-.215-11.456l.215.623-.523-.405-.555.405.216-.623-.524-.373h.647l.216-.623.184.623h.647l-.523.373zm2.495 9.184l-.524-.405-.554.405.215-.654-.524-.374h.647l.216-.622.185.622h.647l-.524.405.216.623zm.831-3.144l-.523-.405-.555.405.216-.654-.524-.374h.647l.216-.622.184.622h.647l-.523.405.215.623z" fill="#00B0F0" fill-rule="nonzero"/></svg>