<svg viewBox="0 0 44 61" xmlns="http://www.w3.org/2000/svg"><g fill="#00B0F0" fill-rule="nonzero"><path d="M44.28 32.56V17.358c0-1.9-.76-3.737-2.09-5.067L32.117 2.217A7.193 7.193 0 0 0 27.05.127H7.348c-1.9 0-3.737.76-5.067 2.09A7.193 7.193 0 0 0 .19 7.285v40.1c0 3.927 3.23 7.158 7.158 7.158H25.15c2.724 3.484 6.968 5.764 11.72 5.764 8.171 0 14.886-6.651 14.886-14.887 0-5.51-3.04-10.325-7.475-12.86zM38.39 13.81h-7.222a.568.568 0 0 1-.57-.57V5.955l7.792 7.855zM7.349 50.805c-1.901 0-3.421-1.52-3.421-3.42v-40.1c0-.95.38-1.774 1.013-2.407a3.461 3.461 0 0 1 2.407-1.014l19.448.064v9.375c0 2.407 1.964 4.308 4.308 4.308h9.439v13.43c-1.204-.317-2.408-.507-3.674-.507-8.172 0-14.887 6.651-14.887 14.886 0 1.9.38 3.738 1.013 5.385H7.348zm29.52 5.765c-6.145 0-11.15-5.005-11.15-11.15 0-6.144 5.005-11.149 11.15-11.149 6.144 0 11.149 5.005 11.149 11.15 0 6.144-5.005 11.149-11.15 11.149zM9.819 21.538h19.004a1.584 1.584 0 1 1 0 3.168H9.82a1.584 1.584 0 1 1 0-3.168zm0 6.335h19.004a1.584 1.584 0 1 1 0 3.167H9.82a1.584 1.584 0 1 1 0-3.167zm0-19.004h9.502a1.584 1.584 0 1 1 0 3.167H9.82a1.584 1.584 0 0 1 0-3.167z"/><path d="M40.416 41.556l-5.068 5.068-2.09-2.09c-.76-.76-1.9-.76-2.66 0-.761.76-.761 1.9 0 2.66l3.42 3.421c.38.38.823.57 1.33.57.507 0 .95-.19 1.33-.57l6.335-6.335c.76-.76.76-1.9 0-2.66-.697-.76-1.837-.76-2.597-.064z"/></g></svg>