<svg viewBox="0 0 74 74" xmlns="http://www.w3.org/2000/svg" class="custom"><g fill-rule="nonzero" fill="none" opacity=".9"><path d="M69.25 23.378a34.852 34.852 0 0 0-7.503-11.126A34.833 34.833 0 0 0 50.622 4.75 34.746 34.746 0 0 0 37 2c-4.728 0-9.308.925-13.624 2.752a34.859 34.859 0 0 0-11.125 7.5 34.866 34.866 0 0 0-7.5 11.125A34.758 34.758 0 0 0 2 37c0 4.727.925 9.307 2.75 13.622a34.869 34.869 0 0 0 7.5 11.125 34.882 34.882 0 0 0 11.127 7.503A34.753 34.753 0 0 0 37 72c4.728 0 9.309-.925 13.623-2.75a34.842 34.842 0 0 0 11.125-7.502 34.863 34.863 0 0 0 7.502-11.125A34.773 34.773 0 0 0 72 37.001c0-4.73-.926-9.31-2.75-13.623z" stroke="#00B0F0" stroke-width="4" class="stroke" /><path d="M31.564 43.609a5.5 5.5 0 0 1 2.26-4.445V16.521a3.253 3.253 0 1 1 6.508 0v1.595c.014 0 .027-.004.043-.004h3.775a.59.59 0 0 1 .604.578v1.661c0 .319-.27.577-.604.577h-3.775c-.016 0-.029-.003-.043-.003v3.998c.014-.001.027-.005.043-.005h3.775a.59.59 0 0 1 .604.579v1.66c0 .32-.27.579-.604.579h-3.775c-.016 0-.029-.004-.043-.004v3.999c.014-.002.027-.004.043-.004h3.775a.59.59 0 0 1 .604.577v1.661c0 .319-.27.578-.604.578h-3.775c-.016 0-.029-.003-.043-.004v4.625a5.501 5.501 0 0 1 2.262 4.446 5.516 5.516 0 0 1-11.03-.001z" fill="#00B0F0"  class="fill" /><path d="M49.72 42.612c1.696 1.574 3.476 1.544 5.605-.094 3.23-2.487 5.218-2.313 5.75-2.2l-.658 3.108s.035.013.11.017c-.01 0-1.13-.05-3.262 1.592-3.336 2.569-6.874 2.535-9.705-.094-1.344-1.247-2.497-1.453-3.447-1.236a6.99 6.99 0 0 0-.61-3.11c2.12-.457 4.28.216 6.217 2.017zM13.583 43.426l-.658-3.109c.53-.112 2.517-.287 5.748 2.201 2.13 1.638 3.91 1.669 5.605.094 2.003-1.86 4.239-2.52 6.423-1.972a6.988 6.988 0 0 0-.589 3.125c-.99-.302-2.221-.17-3.671 1.177-2.832 2.63-6.37 2.663-9.707.094-2.13-1.642-3.25-1.592-3.261-1.592.074-.005.11-.018.11-.018zM61.075 48.406l-.658 3.109s.035.014.11.017c-.01 0-1.13-.05-3.262 1.591-3.336 2.57-6.874 2.536-9.705-.093-2.3-2.135-4.048-1.221-5.162-.348-1.506 1.18-3.142 2.334-5.144 2.361h-.022c-.079 0-.155-.011-.232-.022a1.457 1.457 0 0 1-.23.022h-.023c-2.002-.027-3.639-1.181-5.144-2.36-1.114-.875-2.862-1.788-5.16.347-2.833 2.63-6.37 2.662-9.707.093-2.131-1.64-3.251-1.591-3.262-1.591.074-.004.111-.017.111-.017l-.659-3.109c.531-.112 2.518-.288 5.749 2.201 2.129 1.639 3.91 1.668 5.605.094 2.894-2.688 6.278-2.877 9.283-.52 1.316 1.032 2.315 1.672 3.227 1.685.071.002.142.009.21.018.07-.01.14-.016.212-.018.911-.013 1.91-.653 3.225-1.685 3.007-2.357 6.392-2.168 9.284.52 1.696 1.574 3.476 1.545 5.605-.094 3.23-2.488 5.217-2.313 5.749-2.2z" fill="#00B0F0" class="fill" /></g></svg>