<svg viewBox="0 0 73 73" xmlns="http://www.w3.org/2000/svg"><g fill="#00B0F0" fill-rule="nonzero"><path d="M36.239 0C16.308 0 0 16.308 0 36.239 0 56.17 16.308 72.478 36.239 72.478c19.931 0 36.239-16.308 36.239-36.24C72.478 16.309 56.17 0 36.238 0zm0 68.077c-17.602 0-31.58-14.236-31.58-31.838s13.978-31.58 31.58-31.58c17.602 0 31.838 13.978 31.838 31.58 0 17.602-14.236 31.838-31.838 31.838z"/><path d="M45.299 36.239v-4.4c0-4.919-4.142-9.06-9.06-9.06s-9.06 4.141-9.06 9.06V36.238a2.32 2.32 0 0 0-2.33 2.33v9.06a2.32 2.32 0 0 0 2.33 2.329H45.3a2.32 2.32 0 0 0 2.33-2.33v-9.06a2.32 2.32 0 0 0-2.33-2.33zm-9.06 9.06a2.32 2.32 0 0 1-2.33-2.33 2.32 2.32 0 0 1 2.33-2.33 2.32 2.32 0 0 1 2.33 2.33 2.32 2.32 0 0 1-2.33 2.33zm4.659-9.06H27.179c.008-2.097 0-3.587 0-4.4.08-.002 1.63-.002 4.648 0a4.643 4.643 0 0 1 4.665-4.66 4.643 4.643 0 0 1 4.665 4.66v4.4h-.26z"/></g></svg>