<svg viewBox="0 0 66 79" xmlns="http://www.w3.org/2000/svg"><path d="M59.25 39.124v-12.79C59.25 12.037 47.25 0 33 0S6.75 12.038 6.75 26.333v12.791C3 39.124 0 42.134 0 45.895V72.23C0 75.99 3 79 6.75 79h52.5C63 79 66 75.99 66 72.229V45.895c0-3.762-3-6.771-6.75-6.771zM33 65.457c-3.75 0-6.75-3.01-6.75-6.771 0-3.762 3-6.772 6.75-6.772s6.75 3.01 6.75 6.772c0 3.762-3 6.771-6.75 6.771zm13.5-26.333H6.75c.023-6.096 0-10.426 0-12.79.234-.004 4.723-.004 13.468 0 0-7.524 6.007-13.544 13.516-13.544S47.25 18.81 47.25 26.333v12.791h-.75z" fill="#00B0F0" fill-rule="nonzero"/></svg>